<svg xmlns="http://www.w3.org/2000/svg" aria-hidden="true" style="position:absolute;width:0;height:0;overflow:hidden">
  <defs>
    <symbol id="icon-group" viewBox="0 0 29 32">
      <path d="M14.4 14.222c1.627 0 3.218-.417 4.572-1.198s2.408-1.892 3.031-3.191c.623-1.299.786-2.729.468-4.109s-1.101-2.647-2.252-3.641C19.068 1.089 17.602.411 16.006.137s-3.251-.134-4.754.405-2.789 1.45-3.693 2.619C6.655 4.33 6.172 5.705 6.172 7.112c0 1.886.867 3.695 2.41 5.028s3.636 2.083 5.818 2.083zM26.743 32c.546 0 1.069-.187 1.455-.521s.603-.786.603-1.257c0-3.3-1.517-6.466-4.218-8.8s-6.363-3.645-10.182-3.645-7.482 1.311-10.182 3.645-4.218 5.499-4.218 8.8c0 .472.217.924.603 1.257S1.513 32 2.059 32h24.686z"/>
    </symbol>
    <symbol id="icon-heart" viewBox="0 0 37 32">
      <path d="M32.327 3.625C28.625.529 23.173 1 19.741 4.567l-1.279 1.346-1.346-1.346C14.357 1.74 8.837-.01 4.53 3.625c-4.24 3.635-4.442 10.096-.673 14l13.058 13.462c.404.404.942.606 1.481.606.606 0 1.144-.202 1.548-.606l13.058-13.462c3.769-3.904 3.567-10.365-.673-14zm-.875 12.519-12.99 13.462L5.404 16.144c-2.558-2.692-3.096-7.74.538-10.837 3.702-3.163 8.01-.875 9.625.74l2.894 2.962 2.827-2.962c1.548-1.615 5.923-3.904 9.625-.74 3.635 3.096 3.096 8.144.538 10.837z"/>
    </symbol>
    <symbol id="icon-facebook" viewBox="0 0 19 32">
      <path d="M18.526 1.684a.84.84 0 0 0-.843-.842h-4.211a8.033 8.033 0 0 0-8.421 7.579v4.547H.84a.84.84 0 0 0-.842.842v4.379a.842.842 0 0 0 .842.842h4.211v11.284a.842.842 0 0 0 .842.842h5.053a.84.84 0 0 0 .842-.842V19.031h4.413a.842.842 0 0 0 .826-.623l1.213-4.379a.85.85 0 0 0-.437-.972.838.838 0 0 0-.371-.089H11.79V8.421a1.685 1.685 0 0 1 1.684-1.515h4.211a.844.844 0 0 0 .843-.842V1.685z"/>
    </symbol>
    <symbol id="icon-phone" viewBox="0 0 32 32">
      <path d="M24.591 32c-6.519-.009-12.769-2.607-17.379-7.226S.009 13.893 0 7.36c0-1.952.774-3.824 2.151-5.204S5.397 0 7.345 0a6.27 6.27 0 0 1 1.23.112A6.07 6.07 0 0 1 9.725.4a1.592 1.592 0 0 1 1.038 1.2l2.188 9.6a1.597 1.597 0 0 1-.416 1.472c-.208.224-.224.24-2.188 1.264a15.841 15.841 0 0 0 7.776 7.824c1.038-1.984 1.054-2 1.277-2.208a1.601 1.601 0 0 1 1.469-.416l9.581 2.192a1.59 1.59 0 0 1 1.15 1.04c.135.38.236.771.303 1.168.064.402.096.809.096 1.216-.029 1.944-.825 3.797-2.213 5.155S26.53 32.017 24.59 32z"/>
    </symbol>
<symbol id="icon-search" viewBox="0 0 31 32">
<path stroke-linejoin="round" stroke-linecap="round" stroke-miterlimit="4" stroke-width="2.7826" d="M29.217 29.913l-2.783-2.783M14.609 28.522c1.736 0 3.454-0.342 5.058-1.006s3.061-1.638 4.288-2.865c1.227-1.227 2.201-2.684 2.865-4.288s1.006-3.322 1.006-5.058c0-1.736-0.342-3.454-1.006-5.058s-1.638-3.061-2.865-4.288c-1.227-1.227-2.684-2.201-4.288-2.865s-3.322-1.006-5.058-1.006c-3.505 0-6.867 1.393-9.346 3.871s-3.871 5.841-3.871 9.346c0 3.506 1.393 6.867 3.871 9.346s5.841 3.871 9.346 3.871v0z"></path>
</symbol>
    <symbol id="icon-insta" viewBox="0 0 31 32">
      <path d="M15.36.64c-4.173 0-4.694.019-6.332.092-1.636.077-2.749.334-3.729.714-1.01.392-1.868.918-2.721 1.772S1.197 4.928.806 5.939c-.38.979-.639 2.093-.714 3.729C.015 11.306 0 11.827 0 16s.019 4.694.092 6.332c.077 1.635.334 2.749.714 3.729a7.525 7.525 0 0 0 1.772 2.721 7.53 7.53 0 0 0 2.721 1.772c.98.379 2.094.639 3.729.714 1.638.077 2.159.092 6.332.092s4.694-.019 6.332-.092c1.635-.077 2.749-.335 3.729-.714a7.538 7.538 0 0 0 2.721-1.772 7.521 7.521 0 0 0 1.772-2.721c.379-.979.639-2.094.714-3.729.077-1.638.092-2.159.092-6.332s-.019-4.694-.092-6.332c-.077-1.635-.335-2.751-.714-3.729a7.53 7.53 0 0 0-1.772-2.721 7.495 7.495 0 0 0-2.721-1.772c-.979-.38-2.094-.639-3.729-.714C20.054.655 19.533.64 15.36.64zm0 2.765c4.1 0 4.589.02 6.208.091 1.498.07 2.31.319 2.851.531a4.78 4.78 0 0 1 1.769 1.147 4.752 4.752 0 0 1 1.147 1.768c.21.54.461 1.353.529 2.851.073 1.62.09 2.107.09 6.208s-.019 4.589-.095 6.208c-.078 1.498-.328 2.31-.539 2.851-.287.719-.613 1.229-1.151 1.769a4.8 4.8 0 0 1-1.766 1.147c-.538.21-1.363.461-2.861.529-1.631.073-2.111.09-6.22.09-4.11 0-4.59-.019-6.22-.095-1.499-.078-2.324-.328-2.862-.539-.728-.287-1.229-.613-1.765-1.151a4.666 4.666 0 0 1-1.152-1.766c-.211-.538-.46-1.363-.538-2.861-.058-1.613-.078-2.111-.078-6.2 0-4.091.02-4.59.078-6.222.078-1.498.326-2.322.538-2.86.269-.73.613-1.229 1.152-1.768.536-.536 1.037-.882 1.765-1.149.538-.212 1.345-.462 2.843-.539 1.632-.058 2.112-.077 6.22-.077l.058.038zm0 4.708a7.887 7.887 0 1 0 0 15.774 7.887 7.887 0 1 0 0-15.774zm0 13.007c-2.829 0-5.12-2.291-5.12-5.12s2.291-5.12 5.12-5.12 5.12 2.291 5.12 5.12-2.291 5.12-5.12 5.12zM25.403 7.802a1.844 1.844 0 0 1-3.686 0c0-1.016.827-1.842 1.843-1.842a1.845 1.845 0 0 1 1.843 1.842z"/>
    </symbol>
    <symbol id="icon-tick" viewBox="0 0 43 32">
      <path d="M15.898 32a2.534 2.534 0 0 1-1.853-.813L1.702 18.057a2.54 2.54 0 0 1 1.935-4.28c.674.021 1.312.31 1.773.801l10.464 11.149L37.233 2.362a2.542 2.542 0 0 1 2.799-.814 2.523 2.523 0 0 1 1.492 1.351 2.532 2.532 0 0 1 .04 2.012 2.534 2.534 0 0 1-.573.853L17.778 31.161a2.54 2.54 0 0 1-1.854.838h-.025z"/>
    </symbol>
    <symbol id="icon-menu" viewBox="0 0 53 32">
      <path stroke-linecap="round" stroke-width="3.048" d="M1.905 2.667h48.762M1.905 16.381h48.762M1.905 30.095h48.762"/>
    </symbol>
  </defs>
</svg>
